<svg xmlns="http://www.w3.org/2000/svg" width="164" height="195" viewBox="0 0 164 195"><style>.a{fill:#8A8B8A;}.b{fill:#020000;}</style><title>  Fairtrade Italia Logotype</title><desc>  Il logo di Fairtrade Italia.</desc><g fill="none"><rect width="164" height="195" style="fill:#FFF;opacity:0"/><polygon points="51 195 53.9 195 53.9 179.3 51 179.3" class="a"/><polyline points="63.4 181.9 63.4 195 60.4 195 60.4 181.9 56.2 181.9 56.2 179.3 67.7 179.3 67.7 181.9 63.4 181.9" class="a"/><path d="M74.1 182.1L71.9 189.3 76.2 189.3 74.1 182.1ZM77.9 195L77 191.9 71.1 191.9 70.2 195 67 195 72.4 179.3 75.7 179.3 81.1 195 77.9 195 77.9 195Z" class="a"/><polyline points="83.3 195 83.3 179.3 86.2 179.3 86.2 192.3 92.5 192.3 92.5 195 83.3 195" class="a"/><polygon points="94.8 195 97.7 195 97.7 179.3 94.8 179.3" class="a"/><path d="M106.9 182.1L104.7 189.3 109 189.3 106.9 182.1ZM110.7 195L109.8 191.9 103.9 191.9 103 195 99.8 195 105.2 179.3 108.5 179.3 113.9 195 110.7 195 110.7 195Z" class="a"/><path d="M146.2 6.6C142.4 6.6 139.2 9.7 139.2 13.5 139.2 17.4 142.4 20.5 146.2 20.5 150 20.5 153.2 17.4 153.2 13.5 153.2 9.7 150 6.6 146.2 6.6ZM146.2 21.4C141.8 21.4 138.3 17.9 138.3 13.5 138.3 9.1 141.8 5.6 146.2 5.6 150.6 5.6 154.1 9.1 154.1 13.5 154.1 17.9 150.6 21.4 146.2 21.4L146.2 21.4Z" class="b"/><g class="b"><path d="M146.8 12.8C147.8 12.8 148.3 12.4 148.3 11.5 148.3 11 148 10.3 146.9 10.3L144.5 10.3 144.5 12.8 146.8 12.8ZM142.7 8.7L147.3 8.7C149.7 8.7 150.2 10.5 150.2 11.3 150.2 12.3 149.7 13.2 148.8 13.5 149.5 13.8 149.9 14.1 149.9 15.8 149.9 17.2 149.9 17.5 150.3 17.6L150.3 17.9 148.2 17.9C148.1 17.5 148 17 148 16 148 14.8 147.9 14.3 146.5 14.3L144.5 14.3 144.5 17.9 142.7 17.9 142.7 8.7 142.7 8.7Z"/><path d="M94.3 163.9C93.3 164.4 92.3 164.4 91.8 164.5 90.9 164.5 90.4 164.5 88.9 164.5L87.1 164.5 87.1 156.9 87.1 156.6 89.4 156.6C92 156.6 93.1 156.7 94.1 157.2 96.1 158.2 96.2 160 96.2 160.5L96.1 160.5 96.2 160.6 96.2 160.6C96.2 162.4 95.3 163.4 94.3 163.9ZM95.5 166.9L95.7 166.8C96.9 166.4 100.1 165 100.1 160.6 100.1 157.9 99 156.2 97.6 155 95.6 153.4 93.6 153.4 90.5 153.4L83.2 153.4 83.2 176.4 87.1 176.4 87.1 167.7 91.4 167.7 96.1 176.4 100.5 176.4 95.4 166.9 95.5 166.9ZM152.5 70.9C152.5 31.8 120.8 0.1 81.6 0.1 42.5 0.1 10.8 31.8 10.8 70.9 10.8 110.1 42.5 141.8 81.6 141.8 120.8 141.8 152.5 110.1 152.5 70.9ZM139.7 165.2C139.7 170.1 137.8 171.7 136 172.4 135 172.8 133.8 172.9 130.5 172.9L128.3 172.9 128.3 156.8 130.9 156.8C133.9 156.9 134.7 156.9 136 157.5 139.4 159.2 139.7 162.9 139.7 165.1L139.7 165.2ZM139.5 155.1C137 153.4 134.7 153.4 132.6 153.4L124.4 153.4 124.4 176.4 131.7 176.4C134.5 176.4 136.9 176.3 139.2 175 142.5 173.1 143.9 169.1 143.9 165.1 143.9 162.5 143.3 157.8 139.5 155.1ZM163.2 156.8L163.2 153.4 147 153.4 147 176.4 163.2 176.4 163.2 172.9 150.8 172.9 150.8 166.1 162.2 166.1 162.2 162.8 150.8 162.8 150.8 156.8 163.2 156.8ZM63.7 156.8L70.1 156.8 70.1 176.4 74 176.4 74 156.8 80.5 156.8 80.5 153.4 63.7 153.4 63.7 156.8ZM108.6 168.5L112.2 156.5 115.8 168.5 108.6 168.5ZM109.9 153.4L102.1 176.4 106.3 176.4 107.6 171.8 116.8 171.8 118.2 176.4 122.4 176.4 114.5 153.4 109.9 153.4ZM27.5 168.5L20.3 168.5 24 156.5 27.4 168.1 27.5 168.5ZM21.6 153.4L13.8 176.4 17.9 176.4 19.3 171.8 28.5 171.8 29.9 176.4 34.1 176.4 26.2 153.4 21.6 153.4ZM3.9 156.8L15.1 156.8 15.1 153.4 0 153.4 0 176.4 3.9 176.4 3.9 166.4 13.7 166.4 13.7 163.2 3.9 163.2 3.9 156.8ZM36.8 176.4L40.7 176.4 40.7 153.4 36.8 153.4 36.8 176.4ZM56.6 163.9C55.6 164.4 54.5 164.4 54.1 164.5 53.2 164.5 52.6 164.5 51.1 164.5L49.3 164.5 49.3 156.6 51.6 156.6C54.2 156.6 55.4 156.7 56.4 157.2 58.4 158.2 58.4 160 58.4 160.5L58.4 160.5 58.4 160.6C58.4 160.6 58.4 160.6 58.4 160.6 58.4 162.4 57.6 163.4 56.6 163.9ZM57.8 166.9L57.9 166.8C59.2 166.4 62.4 165 62.4 160.6 62.4 157.9 61.3 156.2 59.9 155 57.9 153.4 55.9 153.4 52.7 153.4L45.5 153.4 45.5 176.4 49.3 176.4 49.3 167.7 53.7 167.7 58.4 176.4 62.8 176.4 57.6 166.9 57.8 166.9 57.8 166.9Z"/></g><path d="M91.3 65.9C82 65.9 74.4 58.4 74.4 49 74.4 39.6 82 32.1 91.3 32.1 100.7 32.1 108.3 39.6 108.3 49 108.3 58.4 100.7 65.9 91.3 65.9ZM130.9 112.8L130.9 112.8C140.4 101.6 146.1 86.7 146.1 70.9 146.1 62.9 144.7 55.3 142 48.2 133.3 24.2 109.4 6.4 82.4 6.4 82 6.4 80.7 6.4 80.7 6.4 75.7 6.6 70.6 7.5 66.5 8.7 64.6 9.3 57.7 11.7 52.7 16.8 47.4 22.3 44.2 29.7 44.2 37.9 44.2 51.2 53.4 62.2 65.8 67.3 71.1 69.4 77 70.7 81.2 71.8 88.7 73.6 104.3 76.2 117.3 84.8L117.8 85.1C126 90.7 130.9 98.8 130.9 112.1L130.9 112.8Z" fill="#00B0D1"/><path d="M17.2 71.1C17.2 54 24 38.3 34.9 26.7 33.5 30.3 31.5 36.8 31.5 44.4 31.5 53 34.1 63.2 42.9 72.4L44.5 74.1C57.1 87.4 68.4 99.3 68.4 115.1 68.4 120.5 67 126.4 64 132.9 37 125.2 17.2 100.5 17.2 71.1" fill="#BDD348"/></g></svg>
