<?xml version="1.0" standalone="no"?>
<!DOCTYPE svg PUBLIC "-//W3C//DTD SVG 20010904//EN"
 "http://www.w3.org/TR/2001/REC-SVG-20010904/DTD/svg10.dtd">
<svg version="1.0" xmlns="http://www.w3.org/2000/svg"
 width="1200.000000pt" height="1200.000000pt" viewBox="0 0 1200.000000 1200.000000"
 preserveAspectRatio="xMidYMid meet">
<metadata>
Created by potrace 1.14, written by Peter Selinger 2001-2017
</metadata>
<g transform="translate(0.000000,1200.000000) scale(0.100000,-0.100000)"
fill="#000000" stroke="none">
<path d="M5559 10797 c-93 -32 -172 -83 -240 -155 -70 -74 -94 -118 -115 -209
-31 -136 -36 -249 -17 -389 23 -167 23 -317 2 -435 -40 -219 -60 -261 -173
-358 -157 -134 -286 -276 -371 -406 -112 -172 -181 -363 -369 -1035 -102 -364
-143 -531 -191 -785 -146 -767 -163 -837 -245 -990 -64 -118 -97 -234 -99
-347 -2 -102 11 -160 46 -207 60 -78 190 -93 295 -34 103 58 137 150 153 413
8 125 12 150 56 315 57 212 363 1122 385 1144 3 3 3 -39 0 -94 -3 -55 -8 -163
-11 -240 -20 -519 -16 -484 -64 -675 -39 -154 -95 -418 -105 -495 -17 -131
-26 -210 -31 -290 -13 -191 -20 -288 -30 -385 -10 -91 -36 -326 -40 -350 -2
-14 -11 -77 -20 -140 -8 -63 -20 -140 -25 -170 -5 -30 -12 -68 -14 -85 -14
-90 -38 -220 -54 -295 -17 -79 -23 -90 -86 -169 -120 -149 -184 -258 -394
-671 -226 -445 -328 -613 -448 -737 -74 -77 -125 -149 -144 -207 -18 -56 -8
-146 24 -200 34 -58 156 -180 351 -352 282 -248 331 -275 476 -271 97 4 147
25 163 69 12 35 1 49 -100 114 -45 29 -91 65 -102 81 -69 97 -152 320 -152
407 1 75 34 129 451 731 251 362 447 657 512 770 101 174 217 467 413 1039 93
274 168 476 174 468 3 -4 28 -59 55 -122 87 -205 308 -633 607 -1174 268 -485
286 -520 318 -610 45 -126 111 -278 189 -435 58 -116 308 -579 381 -706 57
-99 90 -178 115 -275 79 -304 113 -316 454 -160 148 67 326 126 576 190 324
82 375 104 375 157 0 36 -57 87 -122 110 -47 16 -88 18 -373 18 -426 0 -425 0
-530 164 -96 148 -233 475 -384 911 -160 461 -194 556 -243 670 -27 63 -135
375 -240 695 -287 874 -430 1275 -569 1600 l-68 161 2 202 2 203 24 -6 c52
-13 173 -81 335 -189 357 -237 431 -307 589 -558 50 -80 96 -103 202 -103 212
1 319 123 259 297 -27 81 -71 120 -220 195 -75 37 -165 92 -202 121 -97 77
-513 454 -692 627 -309 299 -280 265 -281 321 0 27 -2 56 -3 64 -2 8 -6 53
-10 100 -4 47 -8 99 -10 115 -3 17 -7 62 -10 100 -6 64 -20 188 -31 275 -2 19
-9 73 -15 120 -30 246 -62 414 -122 635 -54 204 -64 296 -47 439 11 89 24 129
56 167 23 27 30 29 87 28 78 -2 120 17 180 81 111 118 188 370 188 615 1 195
-46 334 -149 445 -124 134 -362 196 -534 137z"/>
<path d="M3 40 c0 -25 2 -35 4 -22 2 12 2 32 0 45 -2 12 -4 2 -4 -23z"/>
</g>
</svg>
